<svg width="12" height="12" viewBox="0 0 12 12" fill="none" xmlns="http://www.w3.org/2000/svg">
<path d="M6.00002 1.37465C7.51044 1.37465 7.69924 1.37465 8.26565 1.42185C9.82327 1.46905 10.5313 2.22421 10.5785 3.73453C10.6257 4.3481 10.6257 4.4897 10.6257 6.00002C10.6257 7.51034 10.6257 7.69914 10.5785 8.26551C10.5313 9.77583 9.77607 10.531 8.26565 10.5782C7.65204 10.6254 7.51044 10.6254 6.00002 10.6254C4.4896 10.6254 4.30079 10.6254 3.73439 10.5782C2.17676 10.531 1.46875 9.77583 1.42155 8.26551C1.32715 7.69914 1.32715 7.51034 1.32715 6.00002C1.32715 4.4897 1.32715 4.30091 1.37435 3.73453C1.42155 2.22421 2.17676 1.46905 3.68719 1.42185C4.30079 1.37465 4.4896 1.37465 6.00002 1.37465ZM6.00002 0.336304C4.4424 0.336304 4.25359 0.336304 3.68719 0.383501C1.61036 0.477897 0.477539 1.61064 0.383137 3.68734C0.335937 4.30091 0.335938 4.4897 0.335938 6.00002C0.335938 7.51034 0.335937 7.74633 0.383137 8.3127C0.477539 10.3894 1.61036 11.5221 3.68719 11.6165C4.30079 11.6637 4.4896 11.6637 6.00002 11.6637C7.55764 11.6637 7.74645 11.6637 8.31285 11.6165C10.3897 11.5221 11.5225 10.3894 11.6169 8.3127C11.6641 7.69914 11.6641 7.51034 11.6641 6.00002C11.6641 4.4897 11.6641 4.25371 11.6169 3.68734C11.5225 1.61064 10.3897 0.477897 8.31285 0.383501C7.69925 0.336304 7.51044 0.336304 6.00002 0.336304ZM6.00002 3.07377C4.3952 3.07377 3.07358 4.3953 3.07358 6.00002C3.07358 7.60474 4.3952 8.92627 6.00002 8.92627C7.60484 8.92627 8.87926 7.60474 8.87926 6.00002C8.87926 4.3953 7.60484 3.07377 6.00002 3.07377ZM6.00002 7.88793C4.96161 7.88793 4.11199 7.03837 4.11199 6.00002C4.11199 4.96167 4.96161 4.11211 6.00002 4.11211C7.03844 4.11211 7.88805 4.96167 7.88805 6.00002C7.88805 7.03837 7.03844 7.88793 6.00002 7.88793ZM9.02086 2.3186C8.64326 2.3186 8.36005 2.60179 8.36005 2.97937C8.36005 3.35695 8.64326 3.64014 9.02086 3.64014C9.39847 3.64014 9.68167 3.35695 9.68167 2.97937C9.68167 2.60179 9.39847 2.3186 9.02086 2.3186Z" fill="white"/>
</svg>
