<svg width="13" height="11" viewBox="0 0 13 11" fill="none" xmlns="http://www.w3.org/2000/svg">
<path d="M12.4527 1.76305C12.0212 1.97876 11.5467 2.10819 11.0289 2.15133C11.5467 1.84933 11.935 1.37477 12.1075 0.770775C11.6329 1.07277 11.1152 1.24534 10.5543 1.37477C10.1229 0.900202 9.47569 0.598206 8.74222 0.598206C7.14585 0.598206 5.98093 2.06504 6.3261 3.61817C4.29827 3.53188 2.44304 2.53961 1.23497 1.02963C0.587796 2.15133 0.889811 3.57503 2.01158 4.30844C1.62328 4.30844 1.23497 4.17902 0.889812 4.00645C0.846667 5.12815 1.66642 6.20671 2.87449 6.46556C2.52933 6.55184 2.14102 6.59499 1.75271 6.5087C2.05473 7.50098 2.96078 8.19125 4.0394 8.2344C3.00392 9.0541 1.70957 9.39924 0.37207 9.26981C1.4507 9.96009 2.74505 10.3915 4.16884 10.3915C8.74222 10.3915 11.3309 6.5087 11.1583 3.05732C11.7192 2.71218 12.1507 2.28076 12.4527 1.76305Z" fill="white"/>
</svg>
